<svg width="16" height="16" viewBox="0 0 16 16" fill="none" xmlns="http://www.w3.org/2000/svg">
<path d="M6.73936 2.04978C6.84095 1.79869 7.01521 1.58366 7.23981 1.43225C7.4644 1.28084 7.72909 1.19995 7.99995 1.19995C8.27081 1.19995 8.53551 1.28084 8.7601 1.43225C8.98469 1.58366 9.15895 1.79869 9.26054 2.04978C10.266 2.32629 11.1529 2.92523 11.785 3.75459C12.417 4.58395 12.7594 5.59788 12.7595 6.64066V9.83428L14.0051 11.7027C14.0734 11.8051 14.1126 11.9241 14.1186 12.0471C14.1246 12.17 14.0971 12.2923 14.039 12.4009C13.9809 12.5094 13.8945 12.6001 13.7889 12.6634C13.6833 12.7266 13.5625 12.76 13.4394 12.76H10.3559C10.274 13.3265 9.99082 13.8445 9.55815 14.2191C9.12546 14.5937 8.57229 14.8 7.99995 14.8C7.42762 14.8 6.87444 14.5937 6.44176 14.2191C6.00908 13.8445 5.72587 13.3265 5.644 12.76H2.56052C2.43743 12.76 2.31664 12.7266 2.21103 12.6634C2.10543 12.6001 2.01898 12.5094 1.96091 12.4009C1.90284 12.2923 1.87532 12.17 1.88129 12.0471C1.88727 11.9241 1.9265 11.8051 1.99482 11.7027L3.24045 9.83428V6.64066C3.24045 4.44857 4.7227 2.60188 6.73936 2.04978ZM6.75693 12.76C6.88679 13.1826 7.0742 13.4409 7.27637 13.584C7.44862 13.7059 7.78928 13.7713 8.00029 13.7713C8.2113 13.7713 8.5765 13.7313 8.8347 13.5486C9.16238 13.3167 9.24851 12.959 9.31873 12.76H6.75693ZM7.99995 2.85273C7.09831 2.85273 5.9363 3.28174 5.29874 3.91929C4.66118 4.55685 4.30301 5.73901 4.30301 6.64066V10.0403C4.30304 10.1746 4.26329 10.3059 4.18878 10.4177L3.24045 11.7027H12.7595L11.8042 10.4177C11.73 10.3058 11.6905 10.1745 11.6907 10.0403V6.64066C11.6907 5.73901 11.3325 4.55685 10.695 3.91929C10.0574 3.28174 8.90159 2.85273 7.99995 2.85273Z" fill="#595959"/>
</svg>
